<?xml version="1.0" encoding="UTF-8" ?>
<svg version="1.1" width="128" height="128" xmlns="http://www.w3.org/2000/svg" shape-rendering="crispEdges">
<rect x="12" y="4" width="104" height="48" fill="#222034" />
<rect x="8" y="8" width="4" height="112" fill="#222034" />
<rect x="116" y="8" width="4" height="112" fill="#222034" />
<rect x="4" y="12" width="4" height="104" fill="#222034" />
<rect x="120" y="12" width="4" height="104" fill="#222034" />
<rect x="12" y="52" width="7" height="1" fill="#222034" />
<rect x="19" y="52" width="2" height="15" fill="#9BADB7" />
<rect x="21" y="52" width="64" height="1" fill="#222034" />
<rect x="85" y="52" width="3" height="4" fill="#9BADB7" />
<rect x="88" y="52" width="28" height="1" fill="#222034" />
<rect x="12" y="53" width="6" height="8" fill="#222034" />
<rect x="18" y="53" width="1" height="2" fill="#9BADB7" />
<rect x="21" y="53" width="1" height="12" fill="#9BADB7" />
<rect x="22" y="53" width="63" height="4" fill="#222034" />
<rect x="88" y="53" width="1" height="2" fill="#9BADB7" />
<rect x="89" y="53" width="27" height="5" fill="#222034" />
<rect x="18" y="55" width="1" height="1" fill="#222034" />
<rect x="88" y="55" width="1" height="12" fill="#222034" />
<rect x="18" y="56" width="1" height="1" fill="#9BADB7" />
<rect x="85" y="56" width="3" height="3" fill="#222034" />
<rect x="18" y="57" width="1" height="4" fill="#222034" />
<rect x="22" y="57" width="7" height="1" fill="#222034" />
<rect x="29" y="57" width="6" height="3" fill="#9BADB7" />
<rect x="35" y="57" width="50" height="1" fill="#222034" />
<rect x="22" y="58" width="2" height="66" fill="#222034" />
<rect x="24" y="58" width="5" height="1" fill="#9BADB7" />
<rect x="35" y="58" width="3" height="3" fill="#9BADB7" />
<rect x="38" y="58" width="14" height="1" fill="#222034" />
<rect x="52" y="58" width="2" height="3" fill="#9BADB7" />
<rect x="54" y="58" width="8" height="1" fill="#222034" />
<rect x="62" y="58" width="6" height="1" fill="#9BADB7" />
<rect x="68" y="58" width="4" height="1" fill="#222034" />
<rect x="72" y="58" width="4" height="7" fill="#9BADB7" />
<rect x="76" y="58" width="9" height="1" fill="#222034" />
<rect x="89" y="58" width="2" height="1" fill="#222034" />
<rect x="91" y="58" width="4" height="7" fill="#9BADB7" />
<rect x="95" y="58" width="14" height="1" fill="#222034" />
<rect x="109" y="58" width="4" height="2" fill="#9BADB7" />
<rect x="113" y="58" width="3" height="1" fill="#222034" />
<rect x="24" y="59" width="2" height="65" fill="#222034" />
<rect x="26" y="59" width="3" height="1" fill="#9BADB7" />
<rect x="38" y="59" width="1" height="1" fill="#9BADB7" />
<rect x="39" y="59" width="12" height="1" fill="#222034" />
<rect x="51" y="59" width="1" height="7" fill="#9BADB7" />
<rect x="54" y="59" width="7" height="1" fill="#222034" />
<rect x="61" y="59" width="2" height="1" fill="#9BADB7" />
<rect x="63" y="59" width="1" height="4" fill="#222034" />
<rect x="64" y="59" width="4" height="7" fill="#9BADB7" />
<rect x="68" y="59" width="3" height="6" fill="#222034" />
<rect x="71" y="59" width="1" height="6" fill="#9BADB7" />
<rect x="76" y="59" width="4" height="2" fill="#9BADB7" />
<rect x="80" y="59" width="6" height="1" fill="#222034" />
<rect x="86" y="59" width="2" height="10" fill="#9BADB7" />
<rect x="89" y="59" width="1" height="65" fill="#222034" />
<rect x="90" y="59" width="1" height="6" fill="#9BADB7" />
<rect x="95" y="59" width="4" height="2" fill="#9BADB7" />
<rect x="99" y="59" width="8" height="1" fill="#222034" />
<rect x="107" y="59" width="2" height="2" fill="#9BADB7" />
<rect x="113" y="59" width="2" height="9" fill="#9BADB7" />
<rect x="115" y="59" width="1" height="1" fill="#222034" />
<rect x="26" y="60" width="8" height="1" fill="#222034" />
<rect x="34" y="60" width="1" height="4" fill="#9BADB7" />
<rect x="38" y="60" width="4" height="6" fill="#222034" />
<rect x="42" y="60" width="3" height="3" fill="#9BADB7" />
<rect x="45" y="60" width="6" height="1" fill="#222034" />
<rect x="54" y="60" width="6" height="1" fill="#222034" />
<rect x="60" y="60" width="1" height="2" fill="#9BADB7" />
<rect x="61" y="60" width="2" height="5" fill="#222034" />
<rect x="80" y="60" width="5" height="1" fill="#222034" />
<rect x="85" y="60" width="1" height="8" fill="#9BADB7" />
<rect x="99" y="60" width="7" height="1" fill="#222034" />
<rect x="106" y="60" width="1" height="8" fill="#9BADB7" />
<rect x="109" y="60" width="1" height="1" fill="#9BADB7" />
<rect x="110" y="60" width="1" height="7" fill="#222034" />
<rect x="111" y="60" width="2" height="1" fill="#9BADB7" />
<rect x="115" y="60" width="1" height="6" fill="#9BADB7" />
<rect x="12" y="61" width="4" height="1" fill="#222034" />
<rect x="16" y="61" width="3" height="2" fill="#9BADB7" />
<rect x="26" y="61" width="7" height="1" fill="#222034" />
<rect x="33" y="61" width="1" height="3" fill="#9BADB7" />
<rect x="35" y="61" width="2" height="1" fill="#9BADB7" />
<rect x="37" y="61" width="1" height="6" fill="#222034" />
<rect x="45" y="61" width="1" height="6" fill="#9BADB7" />
<rect x="46" y="61" width="4" height="1" fill="#222034" />
<rect x="50" y="61" width="1" height="7" fill="#9BADB7" />
<rect x="52" y="61" width="1" height="2" fill="#9BADB7" />
<rect x="53" y="61" width="6" height="1" fill="#222034" />
<rect x="59" y="61" width="1" height="2" fill="#9BADB7" />
<rect x="76" y="61" width="1" height="1" fill="#9BADB7" />
<rect x="77" y="61" width="1" height="63" fill="#222034" />
<rect x="78" y="61" width="3" height="2" fill="#9BADB7" />
<rect x="81" y="61" width="4" height="2" fill="#222034" />
<rect x="95" y="61" width="1" height="1" fill="#9BADB7" />
<rect x="96" y="61" width="1" height="63" fill="#222034" />
<rect x="97" y="61" width="3" height="2" fill="#9BADB7" />
<rect x="100" y="61" width="5" height="1" fill="#222034" />
<rect x="105" y="61" width="1" height="6" fill="#9BADB7" />
<rect x="107" y="61" width="1" height="1" fill="#9BADB7" />
<rect x="108" y="61" width="2" height="5" fill="#222034" />
<rect x="111" y="61" width="1" height="5" fill="#222034" />
<rect x="112" y="61" width="1" height="8" fill="#9BADB7" />
<rect x="12" y="62" width="2" height="1" fill="#222034" />
<rect x="14" y="62" width="2" height="2" fill="#9BADB7" />
<rect x="26" y="62" width="6" height="1" fill="#222034" />
<rect x="32" y="62" width="1" height="3" fill="#9BADB7" />
<rect x="35" y="62" width="1" height="1" fill="#9BADB7" />
<rect x="36" y="62" width="1" height="5" fill="#222034" />
<rect x="46" y="62" width="3" height="2" fill="#222034" />
<rect x="49" y="62" width="1" height="9" fill="#9BADB7" />
<rect x="53" y="62" width="5" height="1" fill="#222034" />
<rect x="58" y="62" width="1" height="6" fill="#9BADB7" />
<rect x="60" y="62" width="1" height="5" fill="#222034" />
<rect x="76" y="62" width="1" height="62" fill="#222034" />
<rect x="95" y="62" width="1" height="62" fill="#222034" />
<rect x="100" y="62" width="4" height="1" fill="#222034" />
<rect x="104" y="62" width="1" height="4" fill="#9BADB7" />
<rect x="107" y="62" width="1" height="4" fill="#222034" />
<rect x="12" y="63" width="1" height="1" fill="#222034" />
<rect x="13" y="63" width="1" height="6" fill="#9BADB7" />
<rect x="16" y="63" width="3" height="1" fill="#222034" />
<rect x="26" y="63" width="4" height="1" fill="#222034" />
<rect x="30" y="63" width="2" height="3" fill="#9BADB7" />
<rect x="35" y="63" width="1" height="4" fill="#222034" />
<rect x="42" y="63" width="1" height="61" fill="#222034" />
<rect x="43" y="63" width="2" height="2" fill="#9BADB7" />
<rect x="52" y="63" width="5" height="61" fill="#222034" />
<rect x="57" y="63" width="1" height="4" fill="#9BADB7" />
<rect x="59" y="63" width="1" height="4" fill="#222034" />
<rect x="63" y="63" width="1" height="5" fill="#9BADB7" />
<rect x="78" y="63" width="1" height="61" fill="#222034" />
<rect x="79" y="63" width="3" height="5" fill="#9BADB7" />
<rect x="82" y="63" width="3" height="61" fill="#222034" />
<rect x="97" y="63" width="1" height="61" fill="#222034" />
<rect x="98" y="63" width="3" height="5" fill="#9BADB7" />
<rect x="101" y="63" width="3" height="61" fill="#222034" />
<rect x="12" y="64" width="1" height="4" fill="#9BADB7" />
<rect x="14" y="64" width="1" height="5" fill="#9BADB7" />
<rect x="15" y="64" width="3" height="2" fill="#222034" />
<rect x="18" y="64" width="1" height="5" fill="#9BADB7" />
<rect x="26" y="64" width="3" height="1" fill="#222034" />
<rect x="29" y="64" width="1" height="5" fill="#9BADB7" />
<rect x="33" y="64" width="2" height="3" fill="#222034" />
<rect x="46" y="64" width="1" height="4" fill="#9BADB7" />
<rect x="47" y="64" width="1" height="1" fill="#222034" />
<rect x="48" y="64" width="1" height="10" fill="#9BADB7" />
<rect x="21" y="65" width="1" height="59" fill="#222034" />
<rect x="26" y="65" width="2" height="1" fill="#222034" />
<rect x="28" y="65" width="1" height="4" fill="#9BADB7" />
<rect x="32" y="65" width="1" height="2" fill="#222034" />
<rect x="43" y="65" width="1" height="12" fill="#222034" />
<rect x="44" y="65" width="1" height="1" fill="#9BADB7" />
<rect x="47" y="65" width="1" height="12" fill="#9BADB7" />
<rect x="61" y="65" width="1" height="2" fill="#222034" />
<rect x="62" y="65" width="1" height="4" fill="#9BADB7" />
<rect x="68" y="65" width="1" height="5" fill="#9BADB7" />
<rect x="69" y="65" width="3" height="59" fill="#222034" />
<rect x="72" y="65" width="3" height="3" fill="#9BADB7" />
<rect x="75" y="65" width="1" height="59" fill="#222034" />
<rect x="90" y="65" width="1" height="59" fill="#222034" />
<rect x="91" y="65" width="3" height="3" fill="#9BADB7" />
<rect x="94" y="65" width="1" height="59" fill="#222034" />
<rect x="15" y="66" width="2" height="2" fill="#222034" />
<rect x="17" y="66" width="1" height="4" fill="#9BADB7" />
<rect x="26" y="66" width="1" height="1" fill="#222034" />
<rect x="27" y="66" width="1" height="3" fill="#9BADB7" />
<rect x="30" y="66" width="1" height="3" fill="#9BADB7" />
<rect x="31" y="66" width="1" height="1" fill="#222034" />
<rect x="38" y="66" width="2" height="3" fill="#9BADB7" />
<rect x="40" y="66" width="2" height="58" fill="#222034" />
<rect x="44" y="66" width="1" height="9" fill="#222034" />
<rect x="51" y="66" width="1" height="58" fill="#222034" />
<rect x="64" y="66" width="1" height="1" fill="#9BADB7" />
<rect x="65" y="66" width="1" height="58" fill="#222034" />
<rect x="66" y="66" width="2" height="3" fill="#9BADB7" />
<rect x="104" y="66" width="1" height="58" fill="#222034" />
<rect x="107" y="66" width="2" height="3" fill="#9BADB7" />
<rect x="109" y="66" width="1" height="1" fill="#222034" />
<rect x="111" y="66" width="1" height="3" fill="#9BADB7" />
<rect x="115" y="66" width="1" height="58" fill="#222034" />
<rect x="19" y="67" width="1" height="1" fill="#9BADB7" />
<rect x="20" y="67" width="1" height="57" fill="#222034" />
<rect x="26" y="67" width="1" height="1" fill="#9BADB7" />
<rect x="31" y="67" width="7" height="2" fill="#9BADB7" />
<rect x="45" y="67" width="1" height="5" fill="#222034" />
<rect x="57" y="67" width="1" height="57" fill="#222034" />
<rect x="59" y="67" width="3" height="1" fill="#9BADB7" />
<rect x="64" y="67" width="1" height="57" fill="#222034" />
<rect x="88" y="67" width="1" height="1" fill="#9BADB7" />
<rect x="105" y="67" width="1" height="57" fill="#222034" />
<rect x="109" y="67" width="2" height="2" fill="#9BADB7" />
<rect x="12" y="68" width="1" height="56" fill="#222034" />
<rect x="15" y="68" width="2" height="2" fill="#9BADB7" />
<rect x="19" y="68" width="1" height="56" fill="#222034" />
<rect x="26" y="68" width="1" height="56" fill="#222034" />
<rect x="46" y="68" width="1" height="1" fill="#222034" />
<rect x="50" y="68" width="1" height="56" fill="#222034" />
<rect x="58" y="68" width="2" height="56" fill="#222034" />
<rect x="60" y="68" width="2" height="1" fill="#9BADB7" />
<rect x="63" y="68" width="1" height="56" fill="#222034" />
<rect x="72" y="68" width="3" height="56" fill="#222034" />
<rect x="79" y="68" width="1" height="56" fill="#222034" />
<rect x="80" y="68" width="2" height="1" fill="#9BADB7" />
<rect x="85" y="68" width="1" height="56" fill="#222034" />
<rect x="88" y="68" width="1" height="56" fill="#222034" />
<rect x="91" y="68" width="3" height="56" fill="#222034" />
<rect x="98" y="68" width="1" height="56" fill="#222034" />
<rect x="99" y="68" width="2" height="1" fill="#9BADB7" />
<rect x="106" y="68" width="1" height="56" fill="#222034" />
<rect x="113" y="68" width="2" height="56" fill="#222034" />
<rect x="13" y="69" width="2" height="55" fill="#222034" />
<rect x="18" y="69" width="1" height="55" fill="#222034" />
<rect x="27" y="69" width="13" height="55" fill="#222034" />
<rect x="46" y="69" width="1" height="9" fill="#9BADB7" />
<rect x="60" y="69" width="3" height="55" fill="#222034" />
<rect x="66" y="69" width="2" height="55" fill="#222034" />
<rect x="80" y="69" width="2" height="55" fill="#222034" />
<rect x="86" y="69" width="2" height="55" fill="#222034" />
<rect x="99" y="69" width="2" height="55" fill="#222034" />
<rect x="107" y="69" width="6" height="55" fill="#222034" />
<rect x="15" y="70" width="3" height="54" fill="#222034" />
<rect x="68" y="70" width="1" height="54" fill="#222034" />
<rect x="49" y="71" width="1" height="53" fill="#222034" />
<rect x="45" y="72" width="1" height="7" fill="#9BADB7" />
<rect x="48" y="74" width="1" height="50" fill="#222034" />
<rect x="44" y="75" width="1" height="5" fill="#9BADB7" />
<rect x="43" y="77" width="1" height="3" fill="#9BADB7" />
<rect x="47" y="77" width="1" height="47" fill="#222034" />
<rect x="46" y="78" width="1" height="46" fill="#222034" />
<rect x="45" y="79" width="1" height="45" fill="#222034" />
<rect x="43" y="80" width="2" height="44" fill="#222034" />
</svg>